<?xml version="1.0" encoding="UTF-8" standalone="no"?>
<!-- Created with Inkscape (http://www.inkscape.org/) -->

<svg
   version="1.1"
   id="svg1"
   width="512"
   height="512"
   viewBox="0 0 512 512"
   sodipodi:docname="arrow_down_3.png"
   xml:space="preserve"
   inkscape:export-filename="arrow_down_single_black.png"
   inkscape:export-xdpi="3"
   inkscape:export-ydpi="3"
   xmlns:inkscape="http://www.inkscape.org/namespaces/inkscape"
   xmlns:sodipodi="http://sodipodi.sourceforge.net/DTD/sodipodi-0.dtd"
   xmlns="http://www.w3.org/2000/svg"
   xmlns:svg="http://www.w3.org/2000/svg"><defs
     id="defs1" /><sodipodi:namedview
     id="namedview1"
     pagecolor="#ffffff"
     bordercolor="#999999"
     borderopacity="1"
     inkscape:showpageshadow="2"
     inkscape:pageopacity="0"
     inkscape:pagecheckerboard="0"
     inkscape:deskcolor="#d1d1d1"><inkscape:page
       x="0"
       y="0"
       width="512"
       height="512"
       id="page2"
       margin="0"
       bleed="0" /></sodipodi:namedview><g
     inkscape:groupmode="layer"
     inkscape:label="Image"
     id="g1"><path
       style="fill:#212121;fill-opacity:1;stroke-width:0.727199"
       d="m 250.10738,354.88428 c -1.92602,-0.46741 -4.85192,-1.65321 -6.50201,-2.6351 -4.33799,-2.58135 -158.216948,-156.84562 -159.91743,-160.31786 -7.371231,-15.05149 1.059399,-32.07893 17.46615,-35.27658 4.93549,-0.96191 10.87308,-0.11648 15.55378,2.21466 1.79665,0.8948 26.49506,25.08602 71.02407,69.56561 l 68.26953,68.19375 68.61499,-68.52392 c 64.44202,-64.35649 68.84555,-68.60815 72.4062,-69.90903 5.51207,-2.01384 9.51393,-2.44225 14.09324,-1.50868 16.2205,3.30681 24.52026,20.30816 17.20558,35.24419 -1.69281,3.45655 -155.57798,157.73555 -159.89625,160.30544 -3.18644,1.89632 -9.40185,3.62266 -12.76274,3.54488 -1.12929,-0.026 -3.62909,-0.42994 -5.55511,-0.89736 z"
       id="path1" /></g></svg>
