<?xml version="1.0" encoding="UTF-8" standalone="no"?>
<!-- Created with Inkscape (http://www.inkscape.org/) -->

<svg
   width="150mm"
   height="150mm"
   viewBox="0 0 150 150"
   version="1.1"
   id="svg1"
   xml:space="preserve"
   inkscape:version="1.3.2 (091e20e, 2023-11-25, custom)"
   sodipodi:docname="SCDLO_V1_icon_black.svg"
   xmlns:inkscape="http://www.inkscape.org/namespaces/inkscape"
   xmlns:sodipodi="http://sodipodi.sourceforge.net/DTD/sodipodi-0.dtd"
   xmlns:xlink="http://www.w3.org/1999/xlink"
   xmlns="http://www.w3.org/2000/svg"
   xmlns:svg="http://www.w3.org/2000/svg"><sodipodi:namedview
     id="namedview1"
     pagecolor="#ffffff"
     bordercolor="#999999"
     borderopacity="1"
     inkscape:showpageshadow="2"
     inkscape:pageopacity="0"
     inkscape:pagecheckerboard="0"
     inkscape:deskcolor="#d1d1d1"
     inkscape:document-units="mm"
     inkscape:zoom="0.17794788"
     inkscape:cx="5841.598"
     inkscape:cy="-98.343401"
     inkscape:window-width="1920"
     inkscape:window-height="1013"
     inkscape:window-x="-9"
     inkscape:window-y="-9"
     inkscape:window-maximized="1"
     inkscape:current-layer="layer1" /><defs
     id="defs1"><clipPath
       id="clip0_15_50"><rect
         width="24"
         height="24"
         fill="#ffffff"
         id="rect2"
         x="0"
         y="0" /></clipPath><linearGradient
       inkscape:collect="always"
       xlink:href="#linearGradient64"
       id="linearGradient65-4"
       x1="4.9540734"
       y1="20.961567"
       x2="146.97905"
       y2="151.15172"
       gradientUnits="userSpaceOnUse"
       gradientTransform="matrix(4.3072918,0,0,4.3072918,1481.2184,-433.81043)" /><linearGradient
       id="linearGradient64"
       inkscape:collect="always"><stop
         style="stop-color:#1549ad;stop-opacity:1;"
         offset="0"
         id="stop64" /><stop
         style="stop-color:#8d8ffb;stop-opacity:0.48600882;"
         offset="1"
         id="stop65" /></linearGradient></defs><g
     inkscape:label="Layer 1"
     inkscape:groupmode="layer"
     id="layer1"><g
       id="g5"
       transform="matrix(4,0,0,4,-353.25957,-379.14339)"
       style="display:inline"><path
         d="m 6.5,18 h 6.5 6 c 1.6961,-0.2427 3,-1.7368 3,-3.5 0,-1.7904 -1.3444,-3.2669 -3.0788,-3.4749 C 18.4555,8.175 15.9818,6 13,6 10.7118,6 8.72277,7.2809 7.71081,9.1648 7.32556,9.0574 6.91949,9 6.5,9 4.01472,9 2,11.0147 2,13.5 2,15.9853 4.01472,18 6.5,18 Z"
         stroke="#000000"
         stroke-linecap="round"
         stroke-linejoin="round"
         id="path1-9"
         style="fill:none;fill-opacity:1;stroke:#222222;stroke-width:0.637115;stroke-dasharray:none;stroke-opacity:1"
         transform="matrix(7.2684579,0,0,6.8044415,-12.221494,-22.423211)" /><path
         fill-rule="evenodd"
         clip-rule="evenodd"
         d="m 76.757066,27.565154 c 1.906566,0 3.452257,1.545647 3.452257,3.452263 V 104.6657 c 0,1.90657 -1.545691,3.45227 -3.452257,3.45227 -1.906574,0 -3.452265,-1.5457 -3.452265,-3.45227 V 31.017417 c 0,-1.906616 1.545691,-3.452263 3.452265,-3.452263 z M 58.344993,41.374207 c 1.906615,0 3.452262,1.545648 3.452262,3.452263 v 46.030181 c 0,1.906566 -1.545647,3.452256 -3.452262,3.452256 -1.906617,0 -3.452264,-1.54569 -3.452264,-3.452256 V 44.82647 c 0,-1.906615 1.545647,-3.452263 3.452264,-3.452263 z m 36.824145,0 c 1.906566,0 3.452257,1.545648 3.452257,3.452263 v 46.030181 c 0,1.906566 -1.545691,3.452256 -3.452257,3.452256 -1.906574,0 -3.452265,-1.54569 -3.452265,-3.452256 V 44.82647 c 0,-1.906615 1.545691,-3.452263 3.452265,-3.452263 z M 39.932921,59.786278 c 1.906616,0 3.452264,1.545693 3.452264,3.452261 v 9.20604 c 0,1.906566 -1.545648,3.452265 -3.452264,3.452265 -1.906616,0 -3.452263,-1.545699 -3.452263,-3.452265 v -9.20604 c 0,-1.906568 1.545647,-3.452261 3.452263,-3.452261 z m 73.648279,0 c 1.90658,0 3.45227,1.545693 3.45227,3.452261 v 9.20604 c 0,1.906566 -1.54569,3.452265 -3.45227,3.452265 -1.90656,0 -3.45226,-1.545699 -3.45226,-3.452265 v -9.20604 c 0,-1.906568 1.5457,-3.452261 3.45226,-3.452261 z"
         fill="#1c274c"
         id="path1"
         style="fill:#222222;fill-opacity:1;stroke-width:4.60316;stroke-dasharray:none" /><path
         d="m 76.801838,89.334713 v 54.202427 m 0,0 16.677644,-18.24117 M 76.801838,143.53714 60.124192,125.29597"
         stroke="#1c274c"
         stroke-width="7.59627"
         stroke-linecap="round"
         stroke-linejoin="round"
         id="path2"
         style="fill:none;stroke:#222222;stroke-width:6.91255;stroke-dasharray:none;stroke-opacity:1" /></g><g
       id="g1"><path
         id="path1-53-7"
         style="display:inline;fill:#000000;fill-opacity:1;stroke:none;stroke-width:18.9992;stroke-dasharray:none"
         inkscape:label="Lines"
         d="m 754.31261,-287.28841 c -7.8693,0 -14.24897,6.37953 -14.24897,14.24892 V 30.937842 c 0,0.09741 0.0268,0.187796 0.0288,0.284789 V 159.09704 l -61.66385,-65.634689 -0.0297,0.0289 a 14.250948,14.250948 0 0 0 -9.80663,-3.91693 14.250948,14.250948 0 0 0 -14.25143,14.250909 14.250948,14.250948 0 0 0 3.33411,9.13614 l -0.0192,0.0165 0.16194,0.17211 a 14.250948,14.250948 0 0 0 0.023,0.0247 l 85.43674,90.93764 a 14.250948,14.250948 0 0 0 11.06579,5.31384 14.250948,14.250948 0 0 0 10.9624,-5.17616 l 0.1277,0.1197 85.5323,-91.04011 a 14.250948,14.250948 0 0 0 0.215,-0.22867 l 0.116,-0.12341 -0.012,-0.0124 a 14.250948,14.250948 0 0 0 3.338,-9.14107 14.250948,14.250948 0 0 0 -14.2514,-14.250909 14.250948,14.250948 0 0 0 -9.7913,3.93966 l -0.054,-0.0503 -61.9298,65.917949 V -51.968842 h -0.033 V -273.03949 c 0,-7.86939 -6.3797,-14.24892 -14.2489,-14.24892 z m -75.99456,56.99571 c -7.86945,0 -14.24893,6.37953 -14.24893,14.24893 v 189.985897 c 0,7.869193 6.37948,14.248926 14.24893,14.248926 7.86936,0 14.24894,-6.379733 14.24894,-14.248926 V -216.04377 c 0,-7.8694 -6.37958,-14.24893 -14.24894,-14.24893 z m 151.98896,0 c -7.8692,0 -14.249,6.37953 -14.249,14.24893 v 189.985897 c 0,7.869193 6.3798,14.248926 14.249,14.248926 7.8692,0 14.2489,-6.379733 14.2489,-14.248926 V -216.04377 c 0,-7.8694 -6.3797,-14.24893 -14.2489,-14.24893 z m -227.98296,75.99446 c -7.86936,0 -14.24894,6.37973 -14.24894,14.24893 v 37.99698 c 0,7.869194 6.37958,14.248927 14.24894,14.248927 7.86945,0 14.24893,-6.379733 14.24893,-14.248927 v -37.99698 c 0,-7.8692 -6.37948,-14.24893 -14.24893,-14.24893 z m 303.97736,0 c -7.8691,0 -14.2489,6.37973 -14.2489,14.24893 v 37.99698 c 0,7.869194 6.3798,14.248927 14.2489,14.248927 7.8693,0 14.249,-6.379733 14.249,-14.248927 v -37.99698 c 0,-7.8692 -6.3797,-14.24893 -14.249,-14.24893 z" /><path
         id="path1-9-4"
         style="display:inline;fill:#000000;fill-opacity:1;stroke:none;stroke-width:18.4933;stroke-dasharray:none;stroke-opacity:1"
         inkscape:label="Cloud"
         d="m 777.06051,-325.10293 c -68.64582,0 -128.31659,35.97374 -158.67533,88.88261 -11.55749,-3.0163 -23.73958,-4.62848 -36.32425,-4.62848 -74.55828,0 -135.00013,56.58288 -135.00013,126.38195 0,69.799047 60.44185,126.381449 135.00013,126.381449 h 194.99958 180.0001 c 50.88289,-6.8161827 90.00019,-48.778029 90.00019,-98.297077 0,-50.282952 -40.3323,-91.749802 -92.36429,-97.591422 -13.971,-80.04439 -88.1822,-141.12903 -177.636,-141.12903 z m -2.3996,18.62636 c 14.4025,-0.13368 28.8319,1.40496 42.8275,4.72207 24.3621,5.81068 47.3615,17.1129 66.6924,33.05554 15.5328,12.70826 28.5578,28.51147 37.891,46.26854 5.4941,10.42877 9.7576,21.60253 12.5465,33.13426 1.32,5.25632 1.8771,10.93902 4.8691,15.62952 2.3859,3.95232 6.5321,6.64166 10.9981,7.63623 4.5264,0.79115 9.0334,1.50282 13.4992,2.56947 11.4825,2.70205 22.4206,7.72197 31.9339,14.73671 7.03829,5.176 13.37979,11.56142 18.49259,18.72489 4.4344,6.16091 7.925,13.07235 10.2772,20.24462 2.4587,7.50172 3.7557,15.503698 3.7178,23.469752 0,13.136492 -3.7284,26.199487 -10.2993,37.60382 -5.38,9.410341 -12.7619,17.716731 -21.35879,24.275425 -11.8787,9.086886 -26.0764,15.0157583 -40.8434,17.3418573 -100.1198,-0.0077 -200.2401,-0.01361 -300.35992,-0.02127 -19.92457,0.01169 -39.84922,-0.02616 -59.7737,-0.0038 -6.9227,-0.04005 -13.84999,-0.01361 -20.76704,-0.326347 -13.5127,-0.710516 -26.95723,-3.6980413 -39.4954,-8.8073393 -17.5928,-7.120415 -33.4081,-18.551684 -45.52973,-33.200122 -8.53254,-10.30605 -15.22672,-22.292049 -19.24683,-35.05212 -5.20026,-16.333246 -5.99634,-33.955856 -2.52147,-50.708376 2.69226,-13.1377 8.10846,-25.61078 15.6914,-36.68276 11.99993,-17.56265 29.09388,-31.44648 48.55926,-39.97574 20.66242,-9.12937 43.83778,-12.14876 66.21506,-9.29361 5.02999,0.53698 9.8899,1.75726 14.85157,2.6938 4.93771,1.11803 10.35294,0.63621 14.77234,-1.94855 2.34338,-1.25714 4.11264,-3.30754 5.59658,-5.47031 2.63831,-3.95126 5.13806,-8.05887 7.84173,-11.91612 12.22924,-17.57772 28.24173,-32.43849 46.43295,-43.69605 18.11868,-11.26118 38.44969,-18.77102 59.43597,-22.42443 8.92583,-1.55081 17.97883,-2.41245 27.05343,-2.57891 z" /></g><path
       id="path1-53-7-8"
       style="display:inline;fill:url(#linearGradient65-4);fill-opacity:1;stroke:none;stroke-width:19.8272;stroke-dasharray:none"
       inkscape:label="Lines"
       d="m 1835.5728,-354.54167 c -71.6374,0 -133.9087,37.54151 -165.5904,92.75609 -12.0612,-3.14775 -24.7742,-4.83019 -37.9073,-4.83019 -77.8074,0 -140.8834,59.0488 -140.8834,131.88962 0,72.84079 63.076,131.88911 140.8834,131.88911 h 164.8881 v 19.85253 c 0,0.10165 0.029,0.19592 0.031,0.29714 v 133.44715 l -64.3511,-68.49504 -0.031,0.03 a 14.872,14.872 0 0 0 -10.234,-4.0876 14.872,14.872 0 0 0 -14.8725,14.87196 14.872,14.872 0 0 0 3.4794,9.5343 l -0.02,0.017 0.1689,0.17983 a 14.872,14.872 0 0 0 0.024,0.0258 l 89.1599,94.90067 a 14.872,14.872 0 0 0 11.5482,5.5454 14.872,14.872 0 0 0 11.4401,-5.40174 l 0.1333,0.12506 89.2597,-95.00764 a 14.872,14.872 0 0 0 0.2248,-0.23874 l 0.1209,-0.12868 -0.013,-0.0129 a 14.872,14.872 0 0 0 3.4835,-9.53947 14.872,14.872 0 0 0 -14.8725,-14.87196 14.872,14.872 0 0 0 -10.218,4.11138 l -0.056,-0.0527 -64.6286,68.79063 V -2.83704 h 8.8336 187.8443 c 53.1003,-7.11322 93.9224,-50.903804 93.9224,-102.58082 0,-52.47422 -42.09,-95.74825 -96.3894,-101.84443 -14.5798,-83.53262 -92.0252,-147.27938 -185.3773,-147.27938 z m -2.5043,19.43809 c 15.0303,-0.13962 30.0885,1.4662 44.6939,4.92786 25.4238,6.0639 49.4255,17.85869 69.5989,34.49609 16.2098,13.26207 29.8024,29.75401 39.5423,48.2849 5.7336,10.88325 10.1829,22.54399 13.0932,34.57826 1.3777,5.48538 1.959,11.41573 5.0814,16.31063 2.49,4.12455 6.8168,6.93111 11.4773,7.96902 4.7238,0.82566 9.4272,1.56823 14.0875,2.68149 11.9829,2.81976 23.3978,8.05848 33.3257,15.37891 7.3449,5.40156 13.9627,12.06527 19.2985,19.54092 4.6276,6.42939 8.2703,13.64206 10.7249,21.12688 2.566,7.82864 3.9195,16.17936 3.8799,24.49256 0,13.708963 -3.8909,27.341247 -10.7482,39.242566 -5.6145,9.820433 -13.318,18.488824 -22.2896,25.333334 -12.3964,9.48289 -27.2127,15.67014 -42.6232,18.09761 -65.1571,-0.005 -130.3146,-0.009 -195.4718,-0.014 v -46.847742 h -0.034 V -300.20907 c 0,-8.21233 -6.6577,-14.8699 -14.8699,-14.8699 v 0 c -8.2122,0 -14.8705,6.65757 -14.8705,14.8699 v 277.5505 c -29.4006,-0.002 -58.8013,-0.004 -88.2018,-0.006 -20.7929,0.0122 -41.5859,-0.0273 -62.3786,-0.004 -7.2244,-0.0418 -14.4536,-0.0141 -21.6721,-0.34055 -14.1016,-0.74148 -28.132,-3.85921 -41.2166,-9.19117 -18.3595,-7.43072 -34.864,-19.360181 -47.5139,-34.646977 -8.9044,-10.755174 -15.8903,-23.263541 -20.0856,-36.579683 -5.4269,-17.04502 -6.2576,-35.43564 -2.6314,-52.91821 2.8096,-13.71023 8.4619,-26.72691 16.3753,-38.28139 12.5228,-18.32801 30.3618,-32.8169 50.6754,-41.71786 21.5629,-9.52722 45.7483,-12.6782 69.1007,-9.69864 5.2492,0.56037 10.3209,1.83386 15.4988,2.8112 5.1529,1.16676 10.8041,0.66394 15.4161,-2.03347 2.4455,-1.31192 4.2919,-3.45168 5.8405,-5.70869 2.7533,-4.12346 5.362,-8.41008 8.1835,-12.43542 12.7622,-18.34374 29.4725,-33.85216 48.4565,-45.60032 18.9082,-11.75192 40.1253,-19.58906 62.0261,-23.40167 9.3148,-1.61841 18.7624,-2.51758 28.2324,-2.69131 z m -100.5416,79.50419 c -8.2124,0 -14.8699,6.65756 -14.8699,14.86989 v 198.26542 c 0,8.21212 6.6575,14.86989 14.8699,14.86989 8.2123,0 14.8699,-6.65777 14.8699,-14.86989 V -240.7295 c 0,-8.21233 -6.6576,-14.86989 -14.8699,-14.86989 z m 158.6125,0 c -8.2121,0 -14.8699,6.65756 -14.8699,14.86989 v 198.26542 c 0,8.21212 6.6578,14.86989 14.8699,14.86989 8.2122,0 14.8699,-6.65777 14.8699,-14.86989 V -240.7295 c 0,-8.21233 -6.6577,-14.86989 -14.8699,-14.86989 z m -237.9183,79.30627 c -8.2123,0 -14.8699,6.65777 -14.8699,14.86989 v 39.65288 c 0,8.21212 6.6576,14.86989 14.8699,14.86989 8.2124,0 14.8699,-6.65777 14.8699,-14.86989 v -39.65288 c 0,-8.21212 -6.6575,-14.86989 -14.8699,-14.86989 z m 317.2246,0 c -8.2121,0 -14.8699,6.65777 -14.8699,14.86989 v 39.65288 c 0,8.21212 6.6578,14.86989 14.8699,14.86989 8.2122,0 14.8699,-6.65777 14.8699,-14.86989 v -39.65288 c 0,-8.21212 -6.6577,-14.86989 -14.8699,-14.86989 z"
       inkscape:export-filename="SCDLO_V1_blue.svg"
       inkscape:export-xdpi="96"
       inkscape:export-ydpi="96" /></g></svg>
