<?xml version="1.0" encoding="UTF-8" standalone="no"?>
<!-- Created with Inkscape (http://www.inkscape.org/) -->

<svg
   width="600.00006mm"
   height="512.22601mm"
   viewBox="0 0 600.00006 512.22601"
   version="1.1"
   id="svg1"
   xml:space="preserve"
   inkscape:version="1.3.2 (091e20e, 2023-11-25, custom)"
   sodipodi:docname="SCDLO_V1_icon.svg"
   xmlns:inkscape="http://www.inkscape.org/namespaces/inkscape"
   xmlns:sodipodi="http://sodipodi.sourceforge.net/DTD/sodipodi-0.dtd"
   xmlns:xlink="http://www.w3.org/1999/xlink"
   xmlns="http://www.w3.org/2000/svg"
   xmlns:svg="http://www.w3.org/2000/svg"><sodipodi:namedview
     id="namedview1"
     pagecolor="#ffffff"
     bordercolor="#999999"
     borderopacity="1"
     inkscape:showpageshadow="2"
     inkscape:pageopacity="0"
     inkscape:pagecheckerboard="0"
     inkscape:deskcolor="#d1d1d1"
     inkscape:document-units="mm"
     inkscape:zoom="0.17794788"
     inkscape:cx="5841.598"
     inkscape:cy="-98.343401"
     inkscape:window-width="1920"
     inkscape:window-height="1013"
     inkscape:window-x="-9"
     inkscape:window-y="-9"
     inkscape:window-maximized="1"
     inkscape:current-layer="layer1" /><defs
     id="defs1"><linearGradient
       id="linearGradient7"
       inkscape:collect="always"><stop
         style="stop-color:#1549ad;stop-opacity:1;"
         offset="0"
         id="stop7" /><stop
         style="stop-color:#8d8ffb;stop-opacity:0.48627451;"
         offset="1"
         id="stop8" /></linearGradient><linearGradient
       inkscape:collect="always"
       xlink:href="#linearGradient7"
       id="linearGradient8"
       x1="1024.7034"
       y1="-1017.8132"
       x2="1620.498"
       y2="-511.05396"
       gradientUnits="userSpaceOnUse" /></defs><g
     inkscape:label="Layer 1"
     inkscape:groupmode="layer"
     id="layer1"
     transform="translate(-1020.4979,1027.9063)"><g
       id="g6"><path
         d="m 1347.9057,-1009.0997 v 5e-4 c -9.0746,0.1665 -18.1273,1.0278 -27.0531,2.5786 -20.9863,3.6534 -41.3175,11.16334 -59.4362,22.42451 -18.1911,11.25755 -34.2035,26.11834 -46.4328,43.69604 -2.7036,3.85725 -5.2036,7.96482 -7.8419,11.91607 -1.4839,2.16277 -3.2531,4.21333 -5.5965,5.47047 -4.4194,2.58476 -9.8346,3.06675 -14.7723,1.94872 -4.9617,-0.93654 -9.8218,-2.15691 -14.8518,-2.69389 -22.3773,-2.85515 -45.5526,0.16412 -66.2151,9.29349 -19.4652,8.52925 -36.5594,22.41322 -48.5593,39.97585 -7.5829,11.07197 -12.9987,23.54483 -15.691,36.68252 -3.4749,16.7525 -2.679,34.37529 2.5213,50.70853 4.0201,12.76006 10.7144,24.74608 19.2469,35.05212 12.1216,14.64842 27.9367,26.07963 45.5295,33.20004 12.5382,5.1093 25.9826,8.0967 39.4953,8.80722 6.9171,0.31274 13.8445,0.28649 20.7672,0.32659 19.9244,-0.0222 39.849,0.0158 59.7736,0.004 100.1197,0.008 200.2402,0.0132 300.3599,0.0212 14.767,-2.32608 28.9649,-8.25522 40.8435,-17.34209 8.5968,-6.55869 15.9789,-14.86467 21.3589,-24.275 6.5708,-11.40432 10.2991,-24.46743 10.2991,-37.60391 0.038,-7.96604 -1.2589,-15.96817 -3.7176,-23.46989 -2.3522,-7.17226 -5.8431,-14.08385 -10.2774,-20.24476 -5.1128,-7.16346 -11.4542,-13.54896 -18.4924,-18.72495 -9.5132,-7.01473 -20.4514,-12.03452 -31.9339,-14.73657 -4.4658,-1.06665 -8.9725,-1.7782 -13.4989,-2.56935 -4.466,-0.99457 -8.6124,-3.68391 -10.9983,-7.63623 -2.992,-4.69049 -3.549,-10.37322 -4.869,-15.62953 -2.7889,-11.53172 -7.0524,-22.70566 -12.5465,-33.13442 -9.3332,-17.75705 -22.3585,-33.56024 -37.8912,-46.26849 -19.3309,-15.94262 -42.3305,-27.24467 -66.6926,-33.05539 -13.9956,-3.3171 -28.4249,-4.8558 -42.8274,-4.7222 z"
         style="fill:#ffffff;fill-opacity:1;stroke:none;stroke-width:5.59099"
         id="path5-2" /><path
         id="path1-53-7-7"
         style="display:inline;fill:url(#linearGradient8);fill-opacity:1;stroke:none;stroke-width:17.9796;stroke-dasharray:none;stroke-opacity:1"
         inkscape:label="Lines"
         d="m 1350.4974,-1027.9062 c -68.6457,0 -128.3164,35.97356 -158.6751,88.88238 -11.5574,-3.0163 -23.7398,-4.62814 -36.3244,-4.62814 -74.5582,0 -135,56.58295 -135,126.38195 0,69.79898 60.4418,126.38143 135,126.38143 h 176.6099 v 6.29884 c 0,0.0922 0.025,0.17746 0.027,0.26924 v 121.01225 l -58.3546,-62.11249 -0.028,0.0274 a 13.48617,13.48617 0 0 0 -9.2805,-3.70675 13.48617,13.48617 0 0 0 -13.4866,13.48651 13.48617,13.48617 0 0 0 3.1554,8.64547 l -0.018,0.0155 0.153,0.1633 a 13.48617,13.48617 0 0 0 0.022,0.0233 l 80.8519,86.05728 a 13.48617,13.48617 0 0 0 10.4717,5.02863 13.48617,13.48617 0 0 0 10.3741,-4.89841 l 0.1209,0.11369 80.9423,-86.15443 a 13.48617,13.48617 0 0 0 0.2036,-0.21653 l 0.1096,-0.11679 -0.011,-0.0119 a 13.48617,13.48617 0 0 0 3.1585,-8.65064 13.48617,13.48617 0 0 0 -13.4865,-13.486 13.48617,13.48617 0 0 0 -9.2656,3.72846 l -0.051,-0.0475 -58.6062,62.38017 v -127.84853 h 171.388 c 50.8828,-6.81617 90.0002,-48.77836 90.0002,-98.29736 0,-50.2829 -40.3325,-91.74984 -92.3644,-97.59146 -13.971,-80.04431 -88.1825,-141.12877 -177.6362,-141.12877 z m -2.3993,18.6262 c 14.4025,-0.1337 28.8317,1.4051 42.8273,4.7222 24.3621,5.81065 47.3617,17.11272 66.6926,33.05534 15.5328,12.70825 28.5575,28.51144 37.8907,46.2685 5.4941,10.42876 9.7576,21.60269 12.5465,33.13441 1.32,5.25631 1.8775,10.93904 4.8695,15.62953 2.3859,3.95232 6.5318,6.64166 10.9978,7.63623 4.5264,0.79115 9.0336,1.5027 13.4994,2.56935 11.4825,2.70205 22.4207,7.72236 31.934,14.73709 7.0383,5.17599 13.3796,11.56097 18.4924,18.72444 4.4344,6.1609 7.9252,13.07249 10.2774,20.24476 2.4587,7.50171 3.7555,15.50384 3.7176,23.46988 0,13.13648 -3.7282,26.19959 -10.2991,37.60391 -5.38,9.41033 -12.762,17.71682 -21.3589,24.27552 -11.8787,9.08687 -26.0765,15.01549 -40.8435,17.34158 -56.7438,-0.005 -113.488,-0.008 -170.232,-0.0119 v -53.16781 h -0.031 v -209.20687 c 0,-7.44708 -6.0376,-13.48445 -13.4844,-13.48445 v 0 c -7.447,0 -13.484,6.03686 -13.484,13.48393 v 262.37313 c -34.3753,-0.002 -68.7507,-0.005 -103.126,-0.007 -19.9245,0.0117 -39.8491,-0.0263 -59.7736,-0.004 -6.9227,-0.0401 -13.8502,-0.0133 -20.7672,-0.32607 -13.5127,-0.71052 -26.9572,-3.69844 -39.4953,-8.80774 -17.5927,-7.12041 -33.4078,-18.55162 -45.5295,-33.20004 -8.5325,-10.30604 -15.2268,-22.29206 -19.2469,-35.05212 -5.2002,-16.33323 -5.9966,-33.95551 -2.5218,-50.70802 2.6923,-13.13768 8.1087,-25.61106 15.6916,-36.68303 12,-17.56263 29.0939,-31.4466 48.5593,-39.97585 20.6624,-9.12936 43.8378,-12.14864 66.2151,-9.29349 5.03,0.53698 9.8897,1.75735 14.8513,2.69389 4.9377,1.11803 10.3533,0.63604 14.7727,-1.94872 2.3434,-1.25714 4.1126,-3.30718 5.5966,-5.46995 2.6383,-3.95125 5.1382,-8.05934 7.8419,-11.91658 12.2291,-17.57771 28.2416,-32.4385 46.4328,-43.69604 18.1187,-11.26117 38.4494,-18.77051 59.4356,-22.42391 8.9258,-1.5508 17.9791,-2.4128 27.0537,-2.5792 z m -74.4224,77.47848 c -7.447,0 -13.4844,6.03737 -13.4844,13.48445 v 179.79006 c 0,7.44688 6.0374,13.48444 13.4844,13.48444 7.4471,0 13.4845,-6.03756 13.4845,-13.48444 v -179.79006 c 0,-7.44708 -6.0374,-13.48445 -13.4845,-13.48445 z m 143.8326,0 c -7.4469,0 -13.4844,6.03737 -13.4844,13.48445 v 179.79006 c 0,7.44688 6.0375,13.48444 13.4844,13.48444 7.4469,0 13.4839,-6.03756 13.4839,-13.48444 v -179.79006 c 0,-7.44708 -6.037,-13.48445 -13.4839,-13.48445 z m -215.7481,71.91654 c -7.4471,0 -13.4844,6.03704 -13.4844,13.48393 v 35.95801 c 0,7.44688 6.0373,13.48445 13.4844,13.48445 7.4471,0 13.484,-6.03757 13.484,-13.48445 v -35.95801 c 0,-7.44689 -6.0369,-13.48393 -13.484,-13.48393 z m 287.6641,0 c -7.4468,0 -13.4844,6.03704 -13.4844,13.48393 v 35.95801 c 0,7.44688 6.0376,13.48445 13.4844,13.48445 7.4469,0 13.4845,-6.03757 13.4845,-13.48445 v -35.95801 c 0,-7.44689 -6.0376,-13.48393 -13.4845,-13.48393 z" /></g></g></svg>
