<?xml version="1.0" encoding="UTF-8" standalone="no"?>
<!-- Created with Inkscape (http://www.inkscape.org/) -->

<svg
   width="150mm"
   height="150mm"
   viewBox="0 0 150 150"
   version="1.1"
   id="svg1"
   xml:space="preserve"
   inkscape:version="1.3.2 (091e20e, 2023-11-25, custom)"
   sodipodi:docname="SCDLO_V1_icon.svg"
   xmlns:inkscape="http://www.inkscape.org/namespaces/inkscape"
   xmlns:sodipodi="http://sodipodi.sourceforge.net/DTD/sodipodi-0.dtd"
   xmlns:xlink="http://www.w3.org/1999/xlink"
   xmlns="http://www.w3.org/2000/svg"
   xmlns:svg="http://www.w3.org/2000/svg"><sodipodi:namedview
     id="namedview1"
     pagecolor="#ffffff"
     bordercolor="#999999"
     borderopacity="1"
     inkscape:showpageshadow="2"
     inkscape:pageopacity="0"
     inkscape:pagecheckerboard="0"
     inkscape:deskcolor="#d1d1d1"
     inkscape:document-units="mm"
     inkscape:zoom="0.12582815"
     inkscape:cx="4144.5414"
     inkscape:cy="-1815.9688"
     inkscape:window-width="1920"
     inkscape:window-height="1013"
     inkscape:window-x="-9"
     inkscape:window-y="-9"
     inkscape:window-maximized="1"
     inkscape:current-layer="layer1" /><defs
     id="defs1"><linearGradient
       id="linearGradient7"
       inkscape:collect="always"><stop
         style="stop-color:#1549ad;stop-opacity:1;"
         offset="0"
         id="stop7" /><stop
         style="stop-color:#8d8ffb;stop-opacity:0.48627451;"
         offset="1"
         id="stop8" /></linearGradient><clipPath
       id="clip0_15_50"><rect
         width="24"
         height="24"
         fill="#ffffff"
         id="rect2"
         x="0"
         y="0" /></clipPath><linearGradient
       inkscape:collect="always"
       xlink:href="#linearGradient64"
       id="linearGradient65-4"
       x1="4.9540734"
       y1="20.961567"
       x2="146.97905"
       y2="151.15172"
       gradientUnits="userSpaceOnUse"
       gradientTransform="matrix(4.3072918,0,0,4.3072918,1481.2184,-433.81043)" /><linearGradient
       id="linearGradient64"
       inkscape:collect="always"><stop
         style="stop-color:#1549ad;stop-opacity:1;"
         offset="0"
         id="stop64" /><stop
         style="stop-color:#8d8ffb;stop-opacity:0.48600882;"
         offset="1"
         id="stop65" /></linearGradient><linearGradient
       inkscape:collect="always"
       xlink:href="#linearGradient7"
       id="linearGradient8"
       x1="1024.7034"
       y1="-1017.8132"
       x2="1620.498"
       y2="-511.05396"
       gradientUnits="userSpaceOnUse" /></defs><g
     inkscape:label="Layer 1"
     inkscape:groupmode="layer"
     id="layer1"><g
       id="g5"
       transform="matrix(4,0,0,4,-353.25957,-379.14339)"
       style="display:inline"><path
         d="m 6.5,18 h 6.5 6 c 1.6961,-0.2427 3,-1.7368 3,-3.5 0,-1.7904 -1.3444,-3.2669 -3.0788,-3.4749 C 18.4555,8.175 15.9818,6 13,6 10.7118,6 8.72277,7.2809 7.71081,9.1648 7.32556,9.0574 6.91949,9 6.5,9 4.01472,9 2,11.0147 2,13.5 2,15.9853 4.01472,18 6.5,18 Z"
         stroke="#000000"
         stroke-linecap="round"
         stroke-linejoin="round"
         id="path1-9"
         style="fill:none;fill-opacity:1;stroke:#222222;stroke-width:0.637115;stroke-dasharray:none;stroke-opacity:1"
         transform="matrix(7.2684579,0,0,6.8044415,-12.221494,-22.423211)" /><path
         fill-rule="evenodd"
         clip-rule="evenodd"
         d="m 76.757066,27.565154 c 1.906566,0 3.452257,1.545647 3.452257,3.452263 V 104.6657 c 0,1.90657 -1.545691,3.45227 -3.452257,3.45227 -1.906574,0 -3.452265,-1.5457 -3.452265,-3.45227 V 31.017417 c 0,-1.906616 1.545691,-3.452263 3.452265,-3.452263 z M 58.344993,41.374207 c 1.906615,0 3.452262,1.545648 3.452262,3.452263 v 46.030181 c 0,1.906566 -1.545647,3.452256 -3.452262,3.452256 -1.906617,0 -3.452264,-1.54569 -3.452264,-3.452256 V 44.82647 c 0,-1.906615 1.545647,-3.452263 3.452264,-3.452263 z m 36.824145,0 c 1.906566,0 3.452257,1.545648 3.452257,3.452263 v 46.030181 c 0,1.906566 -1.545691,3.452256 -3.452257,3.452256 -1.906574,0 -3.452265,-1.54569 -3.452265,-3.452256 V 44.82647 c 0,-1.906615 1.545691,-3.452263 3.452265,-3.452263 z M 39.932921,59.786278 c 1.906616,0 3.452264,1.545693 3.452264,3.452261 v 9.20604 c 0,1.906566 -1.545648,3.452265 -3.452264,3.452265 -1.906616,0 -3.452263,-1.545699 -3.452263,-3.452265 v -9.20604 c 0,-1.906568 1.545647,-3.452261 3.452263,-3.452261 z m 73.648279,0 c 1.90658,0 3.45227,1.545693 3.45227,3.452261 v 9.20604 c 0,1.906566 -1.54569,3.452265 -3.45227,3.452265 -1.90656,0 -3.45226,-1.545699 -3.45226,-3.452265 v -9.20604 c 0,-1.906568 1.5457,-3.452261 3.45226,-3.452261 z"
         fill="#1c274c"
         id="path1"
         style="fill:#222222;fill-opacity:1;stroke-width:4.60316;stroke-dasharray:none" /><path
         d="m 76.801838,89.334713 v 54.202427 m 0,0 16.677644,-18.24117 M 76.801838,143.53714 60.124192,125.29597"
         stroke="#1c274c"
         stroke-width="7.59627"
         stroke-linecap="round"
         stroke-linejoin="round"
         id="path2"
         style="fill:none;stroke:#222222;stroke-width:6.91255;stroke-dasharray:none;stroke-opacity:1" /></g><g
       id="g1"><path
         d="m 774.46854,-306.29641 v 5.2e-4 c -9.0746,0.16646 -18.1273,1.02784 -27.0531,2.57865 -20.9863,3.65341 -41.3175,11.1633 -59.4362,22.42447 -18.1911,11.25755 -34.2035,26.11834 -46.4328,43.69604 -2.7036,3.85725 -5.2036,7.96482 -7.8419,11.91607 -1.4839,2.16277 -3.2531,4.21333 -5.5965,5.47047 -4.4194,2.58476 -9.8346,3.06675 -14.7723,1.94872 -4.9617,-0.93654 -9.8218,-2.15691 -14.8518,-2.69389 -22.3773,-2.85515 -45.5526,0.16412 -66.2151,9.29349 -19.4652,8.52925 -36.5594,22.41322 -48.5593,39.97585 -7.58285,11.07197 -12.9987,23.54483 -15.691,36.68252 -3.4749,16.7525 -2.679,34.37529 2.52129,50.708533 4.0201,12.76006 10.71441,24.74608 19.24691,35.05212 12.1216,14.64842 27.9367,26.07963 45.5295,33.20004 12.5382,5.1093 25.9826,8.0967001 39.4953,8.8072201 6.9171,0.31274 13.8445,0.28649 20.7672,0.32659 19.9244,-0.0222 39.849,0.0158 59.7736,0.004 100.1197,0.008 200.2402,0.0132 300.3599,0.0212 14.767,-2.32608 28.9649,-8.2552201 40.8435,-17.3420901 8.59686,-6.55869 15.97896,-14.86467 21.35896,-24.275 6.5708,-11.40432 10.2991,-24.46743 10.2991,-37.60391 0.038,-7.96604 -1.2589,-15.968173 -3.7176,-23.469893 -2.3522,-7.17226 -5.8431,-14.08385 -10.2774,-20.24476 -5.1128,-7.16346 -11.4542,-13.54896 -18.49246,-18.72495 -9.5132,-7.01473 -20.4514,-12.03452 -31.9339,-14.73657 -4.4658,-1.06665 -8.9725,-1.7782 -13.4989,-2.56935 -4.466,-0.99457 -8.6124,-3.68391 -10.9983,-7.63623 -2.992,-4.69049 -3.549,-10.37322 -4.869,-15.62953 -2.7889,-11.53172 -7.0524,-22.70566 -12.5465,-33.13442 -9.3332,-17.75705 -22.3585,-33.56024 -37.8912,-46.26849 -19.3309,-15.94262 -42.3305,-27.24467 -66.6926,-33.05535 -13.9956,-3.3171 -28.4249,-4.85587 -42.8274,-4.72219 z"
         style="fill:#ffffff;fill-opacity:1;stroke:none;stroke-width:5.59099"
         id="path5" /><path
         id="path1-53-7"
         style="display:inline;fill:#000000;fill-opacity:1;stroke:none;stroke-width:17.9796;stroke-dasharray:none"
         inkscape:label="Lines"
         d="m 772.15492,-282.93507 c -7.447,0 -13.4843,6.03717 -13.4843,13.48425 V 18.213548 c 0,0.09218 0.0254,0.177718 0.0273,0.269506 V 139.49508 l -58.35465,-62.112403 -0.0281,0.02735 a 13.48617,13.48617 0 0 0 -9.28036,-3.706728 13.48617,13.48617 0 0 0 -13.48662,13.486137 13.48617,13.48617 0 0 0 3.15518,8.64585 l -0.0182,0.0156 0.15325,0.16288 a 13.48617,13.48617 0 0 0 0.0218,0.0234 l 80.85177,86.057474 a 13.48617,13.48617 0 0 0 10.47194,5.02867 13.48617,13.48617 0 0 0 10.37411,-4.89838 l 0.12084,0.11328 80.94221,-86.154444 a 13.48617,13.48617 0 0 0 0.20346,-0.2164 l 0.10978,-0.11679 -0.0114,-0.0117 a 13.48617,13.48617 0 0 0 3.15887,-8.65052 13.48617,13.48617 0 0 0 -13.4866,-13.486133 13.48617,13.48617 0 0 0 -9.26585,3.728238 l -0.0511,-0.0476 -58.60634,62.380469 V -60.243945 h -0.0312 V -269.45082 c 0,-7.44708 -6.03733,-13.48425 -13.48423,-13.48425 z m -71.91631,53.93703 c -7.44714,0 -13.48426,6.03718 -13.48426,13.48426 v 179.790291 c 0,7.446892 6.03712,13.484256 13.48426,13.484256 7.44705,0 13.48427,-6.037364 13.48427,-13.484256 V -215.51378 c 0,-7.44708 -6.03722,-13.48426 -13.48427,-13.48426 z m 143.83246,0 c -7.4469,0 -13.48432,6.03718 -13.48432,13.48426 v 179.790291 c 0,7.446892 6.03742,13.484256 13.48432,13.484256 7.4469,0 13.48424,-6.037364 13.48424,-13.484256 V -215.51378 c 0,-7.44708 -6.03734,-13.48426 -13.48424,-13.48426 z m -215.74824,71.91622 c -7.44705,0 -13.48427,6.03736 -13.48427,13.48426 v 35.95786 c 0,7.44689 6.03722,13.484258 13.48427,13.484258 7.44714,0 13.48426,-6.037368 13.48426,-13.484258 v -35.95786 c 0,-7.4469 -6.03712,-13.48426 -13.48426,-13.48426 z m 287.6644,0 c -7.4468,0 -13.48423,6.03736 -13.48423,13.48426 v 35.95786 c 0,7.44689 6.03743,13.484258 13.48423,13.484258 7.44699,0 13.48433,-6.037368 13.48433,-13.484258 v -35.95786 c 0,-7.4469 -6.03734,-13.48426 -13.48433,-13.48426 z" /><path
         id="path1-9-4"
         style="display:inline;fill:#000000;fill-opacity:1;stroke:none;stroke-width:18.4933;stroke-dasharray:none;stroke-opacity:1"
         inkscape:label="Cloud"
         d="m 777.06051,-325.10293 c -68.64582,0 -128.31659,35.97374 -158.67533,88.88261 -11.55749,-3.0163 -23.73958,-4.62848 -36.32425,-4.62848 -74.55828,0 -135.00013,56.58288 -135.00013,126.38195 0,69.799047 60.44185,126.381449 135.00013,126.381449 h 194.99958 180.0001 c 50.88289,-6.8161827 90.00019,-48.778029 90.00019,-98.297077 0,-50.282952 -40.3323,-91.749802 -92.36429,-97.591422 -13.971,-80.04439 -88.1822,-141.12903 -177.636,-141.12903 z m -2.3996,18.62636 c 14.4025,-0.13368 28.8319,1.40496 42.8275,4.72207 24.3621,5.81068 47.3615,17.1129 66.6924,33.05554 15.5328,12.70826 28.5578,28.51147 37.891,46.26854 5.4941,10.42877 9.7576,21.60253 12.5465,33.13426 1.32,5.25632 1.8771,10.93902 4.8691,15.62952 2.3859,3.95232 6.5321,6.64166 10.9981,7.63623 4.5264,0.79115 9.0334,1.50282 13.4992,2.56947 11.4825,2.70205 22.4206,7.72197 31.9339,14.73671 7.03829,5.176 13.37979,11.56142 18.49259,18.72489 4.4344,6.16091 7.925,13.07235 10.2772,20.24462 2.4587,7.50172 3.7557,15.503698 3.7178,23.469752 0,13.136492 -3.7284,26.199487 -10.2993,37.60382 -5.38,9.410341 -12.7619,17.716731 -21.35879,24.275425 -11.8787,9.086886 -26.0764,15.0157583 -40.8434,17.3418573 -100.1198,-0.0077 -200.2401,-0.01361 -300.35992,-0.02127 -19.92457,0.01169 -39.84922,-0.02616 -59.7737,-0.0038 -6.9227,-0.04005 -13.84999,-0.01361 -20.76704,-0.326347 -13.5127,-0.710516 -26.95723,-3.6980413 -39.4954,-8.8073393 -17.5928,-7.120415 -33.4081,-18.551684 -45.52973,-33.200122 -8.53254,-10.30605 -15.22672,-22.292049 -19.24683,-35.05212 -5.20026,-16.333246 -5.99634,-33.955856 -2.52147,-50.708376 2.69226,-13.1377 8.10846,-25.61078 15.6914,-36.68276 11.99993,-17.56265 29.09388,-31.44648 48.55926,-39.97574 20.66242,-9.12937 43.83778,-12.14876 66.21506,-9.29361 5.02999,0.53698 9.8899,1.75726 14.85157,2.6938 4.93771,1.11803 10.35294,0.63621 14.77234,-1.94855 2.34338,-1.25714 4.11264,-3.30754 5.59658,-5.47031 2.63831,-3.95126 5.13806,-8.05887 7.84173,-11.91612 12.22924,-17.57772 28.24173,-32.43849 46.43295,-43.69605 18.11868,-11.26118 38.44969,-18.77102 59.43597,-22.42443 8.92583,-1.55081 17.97883,-2.41245 27.05343,-2.57891 z" /></g><g
       id="g6"><path
         d="m 1347.9057,-1009.0997 v 5e-4 c -9.0746,0.1665 -18.1273,1.0278 -27.0531,2.5786 -20.9863,3.6534 -41.3175,11.16334 -59.4362,22.42451 -18.1911,11.25755 -34.2035,26.11834 -46.4328,43.69604 -2.7036,3.85725 -5.2036,7.96482 -7.8419,11.91607 -1.4839,2.16277 -3.2531,4.21333 -5.5965,5.47047 -4.4194,2.58476 -9.8346,3.06675 -14.7723,1.94872 -4.9617,-0.93654 -9.8218,-2.15691 -14.8518,-2.69389 -22.3773,-2.85515 -45.5526,0.16412 -66.2151,9.29349 -19.4652,8.52925 -36.5594,22.41322 -48.5593,39.97585 -7.5829,11.07197 -12.9987,23.54483 -15.691,36.68252 -3.4749,16.7525 -2.679,34.37529 2.5213,50.70853 4.0201,12.76006 10.7144,24.74608 19.2469,35.05212 12.1216,14.64842 27.9367,26.07963 45.5295,33.20004 12.5382,5.1093 25.9826,8.0967 39.4953,8.80722 6.9171,0.31274 13.8445,0.28649 20.7672,0.32659 19.9244,-0.0222 39.849,0.0158 59.7736,0.004 100.1197,0.008 200.2402,0.0132 300.3599,0.0212 14.767,-2.32608 28.9649,-8.25522 40.8435,-17.34209 8.5968,-6.55869 15.9789,-14.86467 21.3589,-24.275 6.5708,-11.40432 10.2991,-24.46743 10.2991,-37.60391 0.038,-7.96604 -1.2589,-15.96817 -3.7176,-23.46989 -2.3522,-7.17226 -5.8431,-14.08385 -10.2774,-20.24476 -5.1128,-7.16346 -11.4542,-13.54896 -18.4924,-18.72495 -9.5132,-7.01473 -20.4514,-12.03452 -31.9339,-14.73657 -4.4658,-1.06665 -8.9725,-1.7782 -13.4989,-2.56935 -4.466,-0.99457 -8.6124,-3.68391 -10.9983,-7.63623 -2.992,-4.69049 -3.549,-10.37322 -4.869,-15.62953 -2.7889,-11.53172 -7.0524,-22.70566 -12.5465,-33.13442 -9.3332,-17.75705 -22.3585,-33.56024 -37.8912,-46.26849 -19.3309,-15.94262 -42.3305,-27.24467 -66.6926,-33.05539 -13.9956,-3.3171 -28.4249,-4.8558 -42.8274,-4.7222 z"
         style="fill:#ffffff;fill-opacity:1;stroke:none;stroke-width:5.59099"
         id="path5-2" /><path
         id="path1-53-7-7"
         style="display:inline;fill:url(#linearGradient8);fill-opacity:1;stroke:none;stroke-width:17.9796;stroke-dasharray:none;stroke-opacity:1"
         inkscape:label="Lines"
         d="M 1350.4974 -1027.9062 C 1281.8517 -1027.9062 1222.181 -991.93264 1191.8223 -939.02382 C 1180.2649 -942.04012 1168.0825 -943.65196 1155.4979 -943.65196 C 1080.9397 -943.65196 1020.4979 -887.06901 1020.4979 -817.27001 C 1020.4979 -747.47103 1080.9397 -690.88858 1155.4979 -690.88858 L 1332.1078 -690.88858 L 1332.1078 -684.58974 C 1332.1078 -684.49754 1332.1327 -684.41228 1332.1347 -684.3205 L 1332.1347 -563.30825 L 1273.7801 -625.42074 L 1273.7522 -625.39335 A 13.48617 13.48617 0 0 0 1264.4717 -629.1001 A 13.48617 13.48617 0 0 0 1250.9851 -615.61359 A 13.48617 13.48617 0 0 0 1254.1405 -606.96812 L 1254.1224 -606.95262 L 1254.2754 -606.78932 A 13.48617 13.48617 0 0 0 1254.2976 -606.76606 L 1335.1495 -520.70878 A 13.48617 13.48617 0 0 0 1345.6212 -515.68015 A 13.48617 13.48617 0 0 0 1355.9953 -520.57856 L 1356.1162 -520.46487 L 1437.0585 -606.6193 A 13.48617 13.48617 0 0 0 1437.2621 -606.83583 L 1437.3717 -606.95262 L 1437.3608 -606.9645 A 13.48617 13.48617 0 0 0 1440.5193 -615.61514 A 13.48617 13.48617 0 0 0 1427.0328 -629.10114 A 13.48617 13.48617 0 0 0 1417.7672 -625.37268 L 1417.716 -625.42022 L 1359.1098 -563.04005 L 1359.1098 -690.88858 L 1530.4978 -690.88858 C 1581.3806 -697.70475 1620.498 -739.66694 1620.498 -789.18594 C 1620.498 -839.46884 1580.1655 -880.93578 1528.1336 -886.7774 C 1514.1626 -966.82171 1439.9511 -1027.9062 1350.4974 -1027.9062 z M 1348.0981 -1009.28 C 1362.5006 -1009.4137 1376.9298 -1007.8749 1390.9254 -1004.5578 C 1415.2875 -998.74715 1438.2871 -987.44508 1457.618 -971.50246 C 1473.1508 -958.79421 1486.1755 -942.99102 1495.5087 -925.23396 C 1501.0028 -914.8052 1505.2663 -903.63127 1508.0552 -892.09955 C 1509.3752 -886.84324 1509.9327 -881.16051 1512.9247 -876.47002 C 1515.3106 -872.5177 1519.4565 -869.82836 1523.9225 -868.83379 C 1528.4489 -868.04264 1532.9561 -867.33109 1537.4219 -866.26444 C 1548.9044 -863.56239 1559.8426 -858.54208 1569.3559 -851.52735 C 1576.3942 -846.35136 1582.7355 -839.96638 1587.8483 -832.80291 C 1592.2827 -826.64201 1595.7735 -819.73042 1598.1257 -812.55815 C 1600.5844 -805.05644 1601.8812 -797.05431 1601.8433 -789.08827 C 1601.8433 -775.95179 1598.1151 -762.88868 1591.5442 -751.48436 C 1586.1642 -742.07403 1578.7822 -733.76754 1570.1853 -727.20884 C 1558.3066 -718.12197 1544.1088 -712.19335 1529.3418 -709.86726 C 1472.598 -709.8718 1415.8538 -709.87534 1359.1098 -709.87915 L 1359.1098 -763.04696 L 1359.0788 -763.04696 L 1359.0788 -972.25383 C 1359.0788 -979.70091 1353.0412 -985.73828 1345.5944 -985.73828 L 1345.5918 -985.73828 C 1338.1448 -985.73828 1332.1078 -979.70142 1332.1078 -972.25435 L 1332.1078 -709.88122 C 1297.7325 -709.88355 1263.3571 -709.88581 1228.9818 -709.88845 C 1209.0573 -709.87675 1189.1327 -709.91479 1169.2082 -709.89259 C 1162.2855 -709.93269 1155.358 -709.90592 1148.441 -710.21866 C 1134.9283 -710.92918 1121.4838 -713.9171 1108.9457 -719.0264 C 1091.353 -726.14681 1075.5379 -737.57802 1063.4162 -752.22644 C 1054.8837 -762.53248 1048.1894 -774.5185 1044.1693 -787.27856 C 1038.9691 -803.61179 1038.1727 -821.23407 1041.6475 -837.98658 C 1044.3398 -851.12426 1049.7562 -863.59764 1057.3391 -874.66961 C 1069.3391 -892.23224 1086.433 -906.11621 1105.8984 -914.64546 C 1126.5608 -923.77482 1149.7362 -926.7941 1172.1135 -923.93895 C 1177.1435 -923.40197 1182.0032 -922.1816 1186.9648 -921.24506 C 1191.9025 -920.12703 1197.3181 -920.60902 1201.7375 -923.19378 C 1204.0809 -924.45092 1205.8501 -926.50096 1207.3341 -928.66373 C 1209.9724 -932.61498 1212.4723 -936.72307 1215.176 -940.58031 C 1227.4051 -958.15802 1243.4176 -973.01881 1261.6088 -984.27635 C 1279.7275 -995.53752 1300.0582 -1003.0469 1321.0444 -1006.7003 C 1329.9702 -1008.2511 1339.0235 -1009.1131 1348.0981 -1009.2795 L 1348.0981 -1009.28 z M 1273.6757 -931.80152 C 1266.2287 -931.80152 1260.1913 -925.76415 1260.1913 -918.31707 L 1260.1913 -738.52701 C 1260.1913 -731.08013 1266.2287 -725.04257 1273.6757 -725.04257 C 1281.1228 -725.04257 1287.1602 -731.08013 1287.1602 -738.52701 L 1287.1602 -918.31707 C 1287.1602 -925.76415 1281.1228 -931.80152 1273.6757 -931.80152 z M 1417.5083 -931.80152 C 1410.0614 -931.80152 1404.0239 -925.76415 1404.0239 -918.31707 L 1404.0239 -738.52701 C 1404.0239 -731.08013 1410.0614 -725.04257 1417.5083 -725.04257 C 1424.9552 -725.04257 1430.9922 -731.08013 1430.9922 -738.52701 L 1430.9922 -918.31707 C 1430.9922 -925.76415 1424.9552 -931.80152 1417.5083 -931.80152 z M 1201.7602 -859.88498 C 1194.3131 -859.88498 1188.2758 -853.84794 1188.2758 -846.40105 L 1188.2758 -810.44304 C 1188.2758 -802.99616 1194.3131 -796.95859 1201.7602 -796.95859 C 1209.2073 -796.95859 1215.2442 -802.99616 1215.2442 -810.44304 L 1215.2442 -846.40105 C 1215.2442 -853.84794 1209.2073 -859.88498 1201.7602 -859.88498 z M 1489.4243 -859.88498 C 1481.9775 -859.88498 1475.9399 -853.84794 1475.9399 -846.40105 L 1475.9399 -810.44304 C 1475.9399 -802.99616 1481.9775 -796.95859 1489.4243 -796.95859 C 1496.8712 -796.95859 1502.9088 -802.99616 1502.9088 -810.44304 L 1502.9088 -846.40105 C 1502.9088 -853.84794 1496.8712 -859.88498 1489.4243 -859.88498 z "
         inkscape:export-filename="SCDLO_V1_icon_blue.svg"
         inkscape:export-xdpi="96"
         inkscape:export-ydpi="96" /></g><path
       id="path1-53-7-8"
       style="display:inline;fill:url(#linearGradient65-4);fill-opacity:1;stroke:none;stroke-width:19.8272;stroke-dasharray:none"
       inkscape:label="Lines"
       d="m 1835.5728,-354.54167 c -71.6374,0 -133.9087,37.54151 -165.5904,92.75609 -12.0612,-3.14775 -24.7742,-4.83019 -37.9073,-4.83019 -77.8074,0 -140.8834,59.0488 -140.8834,131.88962 0,72.84079 63.076,131.88911 140.8834,131.88911 h 164.8881 v 19.85253 c 0,0.10165 0.029,0.19592 0.031,0.29714 v 133.44715 l -64.3511,-68.49504 -0.031,0.03 a 14.872,14.872 0 0 0 -10.234,-4.0876 14.872,14.872 0 0 0 -14.8725,14.87196 14.872,14.872 0 0 0 3.4794,9.5343 l -0.02,0.017 0.1689,0.17983 a 14.872,14.872 0 0 0 0.024,0.0258 l 89.1599,94.90067 a 14.872,14.872 0 0 0 11.5482,5.5454 14.872,14.872 0 0 0 11.4401,-5.40174 l 0.1333,0.12506 89.2597,-95.00764 a 14.872,14.872 0 0 0 0.2248,-0.23874 l 0.1209,-0.12868 -0.013,-0.0129 a 14.872,14.872 0 0 0 3.4835,-9.53947 14.872,14.872 0 0 0 -14.8725,-14.87196 14.872,14.872 0 0 0 -10.218,4.11138 l -0.056,-0.0527 -64.6286,68.79063 V -2.83704 h 8.8336 187.8443 c 53.1003,-7.11322 93.9224,-50.903804 93.9224,-102.58082 0,-52.47422 -42.09,-95.74825 -96.3894,-101.84443 -14.5798,-83.53262 -92.0252,-147.27938 -185.3773,-147.27938 z m -2.5043,19.43809 c 15.0303,-0.13962 30.0885,1.4662 44.6939,4.92786 25.4238,6.0639 49.4255,17.85869 69.5989,34.49609 16.2098,13.26207 29.8024,29.75401 39.5423,48.2849 5.7336,10.88325 10.1829,22.54399 13.0932,34.57826 1.3777,5.48538 1.959,11.41573 5.0814,16.31063 2.49,4.12455 6.8168,6.93111 11.4773,7.96902 4.7238,0.82566 9.4272,1.56823 14.0875,2.68149 11.9829,2.81976 23.3978,8.05848 33.3257,15.37891 7.3449,5.40156 13.9627,12.06527 19.2985,19.54092 4.6276,6.42939 8.2703,13.64206 10.7249,21.12688 2.566,7.82864 3.9195,16.17936 3.8799,24.49256 0,13.708963 -3.8909,27.341247 -10.7482,39.242566 -5.6145,9.820433 -13.318,18.488824 -22.2896,25.333334 -12.3964,9.48289 -27.2127,15.67014 -42.6232,18.09761 -65.1571,-0.005 -130.3146,-0.009 -195.4718,-0.014 v -46.847742 h -0.034 V -300.20907 c 0,-8.21233 -6.6577,-14.8699 -14.8699,-14.8699 v 0 c -8.2122,0 -14.8705,6.65757 -14.8705,14.8699 v 277.5505 c -29.4006,-0.002 -58.8013,-0.004 -88.2018,-0.006 -20.7929,0.0122 -41.5859,-0.0273 -62.3786,-0.004 -7.2244,-0.0418 -14.4536,-0.0141 -21.6721,-0.34055 -14.1016,-0.74148 -28.132,-3.85921 -41.2166,-9.19117 -18.3595,-7.43072 -34.864,-19.360181 -47.5139,-34.646977 -8.9044,-10.755174 -15.8903,-23.263541 -20.0856,-36.579683 -5.4269,-17.04502 -6.2576,-35.43564 -2.6314,-52.91821 2.8096,-13.71023 8.4619,-26.72691 16.3753,-38.28139 12.5228,-18.32801 30.3618,-32.8169 50.6754,-41.71786 21.5629,-9.52722 45.7483,-12.6782 69.1007,-9.69864 5.2492,0.56037 10.3209,1.83386 15.4988,2.8112 5.1529,1.16676 10.8041,0.66394 15.4161,-2.03347 2.4455,-1.31192 4.2919,-3.45168 5.8405,-5.70869 2.7533,-4.12346 5.362,-8.41008 8.1835,-12.43542 12.7622,-18.34374 29.4725,-33.85216 48.4565,-45.60032 18.9082,-11.75192 40.1253,-19.58906 62.0261,-23.40167 9.3148,-1.61841 18.7624,-2.51758 28.2324,-2.69131 z m -100.5416,79.50419 c -8.2124,0 -14.8699,6.65756 -14.8699,14.86989 v 198.26542 c 0,8.21212 6.6575,14.86989 14.8699,14.86989 8.2123,0 14.8699,-6.65777 14.8699,-14.86989 V -240.7295 c 0,-8.21233 -6.6576,-14.86989 -14.8699,-14.86989 z m 158.6125,0 c -8.2121,0 -14.8699,6.65756 -14.8699,14.86989 v 198.26542 c 0,8.21212 6.6578,14.86989 14.8699,14.86989 8.2122,0 14.8699,-6.65777 14.8699,-14.86989 V -240.7295 c 0,-8.21233 -6.6577,-14.86989 -14.8699,-14.86989 z m -237.9183,79.30627 c -8.2123,0 -14.8699,6.65777 -14.8699,14.86989 v 39.65288 c 0,8.21212 6.6576,14.86989 14.8699,14.86989 8.2124,0 14.8699,-6.65777 14.8699,-14.86989 v -39.65288 c 0,-8.21212 -6.6575,-14.86989 -14.8699,-14.86989 z m 317.2246,0 c -8.2121,0 -14.8699,6.65777 -14.8699,14.86989 v 39.65288 c 0,8.21212 6.6578,14.86989 14.8699,14.86989 8.2122,0 14.8699,-6.65777 14.8699,-14.86989 v -39.65288 c 0,-8.21212 -6.6577,-14.86989 -14.8699,-14.86989 z" /></g></svg>
