<?xml version="1.0" encoding="UTF-8" standalone="no"?>
<!-- Created with Inkscape (http://www.inkscape.org/) -->

<svg
   width="150mm"
   height="150mm"
   viewBox="0 0 150 150"
   version="1.1"
   id="svg1"
   xml:space="preserve"
   inkscape:version="1.3.2 (091e20e, 2023-11-25, custom)"
   sodipodi:docname="SCDLO_V1_icon_lighmode.svg"
   xmlns:inkscape="http://www.inkscape.org/namespaces/inkscape"
   xmlns:sodipodi="http://sodipodi.sourceforge.net/DTD/sodipodi-0.dtd"
   xmlns="http://www.w3.org/2000/svg"
   xmlns:svg="http://www.w3.org/2000/svg"><sodipodi:namedview
     id="namedview1"
     pagecolor="#ffffff"
     bordercolor="#999999"
     borderopacity="1"
     inkscape:showpageshadow="2"
     inkscape:pageopacity="0"
     inkscape:pagecheckerboard="0"
     inkscape:deskcolor="#d1d1d1"
     inkscape:document-units="mm"
     inkscape:zoom="0.71179153"
     inkscape:cx="117.30963"
     inkscape:cy="491.01455"
     inkscape:window-width="1920"
     inkscape:window-height="1013"
     inkscape:window-x="-9"
     inkscape:window-y="-9"
     inkscape:window-maximized="1"
     inkscape:current-layer="layer1" /><defs
     id="defs1"><clipPath
       id="clip0_15_50"><rect
         width="24"
         height="24"
         fill="#ffffff"
         id="rect2"
         x="0"
         y="0" /></clipPath></defs><g
     inkscape:label="Layer 1"
     inkscape:groupmode="layer"
     id="layer1"><g
       id="g5"
       transform="translate(0,-6.6146236)"
       style="display:inline"><path
         d="m 6.5,18 h 6.5 6 c 1.6961,-0.2427 3,-1.7368 3,-3.5 0,-1.7904 -1.3444,-3.2669 -3.0788,-3.4749 C 18.4555,8.175 15.9818,6 13,6 10.7118,6 8.72277,7.2809 7.71081,9.1648 7.32556,9.0574 6.91949,9 6.5,9 4.01472,9 2,11.0147 2,13.5 2,15.9853 4.01472,18 6.5,18 Z"
         stroke="#000000"
         stroke-linecap="round"
         stroke-linejoin="round"
         id="path1-9"
         style="fill:none;stroke:#222222;stroke-width:0.637115;stroke-dasharray:none;stroke-opacity:1;fill-opacity:1"
         transform="matrix(7.2684579,0,0,6.8044415,-12.221494,-22.423211)" /><path
         fill-rule="evenodd"
         clip-rule="evenodd"
         d="m 76.757066,27.565154 c 1.906566,0 3.452257,1.545647 3.452257,3.452263 V 104.6657 c 0,1.90657 -1.545691,3.45227 -3.452257,3.45227 -1.906574,0 -3.452265,-1.5457 -3.452265,-3.45227 V 31.017417 c 0,-1.906616 1.545691,-3.452263 3.452265,-3.452263 z M 58.344993,41.374207 c 1.906615,0 3.452262,1.545648 3.452262,3.452263 v 46.030181 c 0,1.906566 -1.545647,3.452256 -3.452262,3.452256 -1.906617,0 -3.452264,-1.54569 -3.452264,-3.452256 V 44.82647 c 0,-1.906615 1.545647,-3.452263 3.452264,-3.452263 z m 36.824145,0 c 1.906566,0 3.452257,1.545648 3.452257,3.452263 v 46.030181 c 0,1.906566 -1.545691,3.452256 -3.452257,3.452256 -1.906574,0 -3.452265,-1.54569 -3.452265,-3.452256 V 44.82647 c 0,-1.906615 1.545691,-3.452263 3.452265,-3.452263 z M 39.932921,59.786278 c 1.906616,0 3.452264,1.545693 3.452264,3.452261 v 9.20604 c 0,1.906566 -1.545648,3.452265 -3.452264,3.452265 -1.906616,0 -3.452263,-1.545699 -3.452263,-3.452265 v -9.20604 c 0,-1.906568 1.545647,-3.452261 3.452263,-3.452261 z m 73.648279,0 c 1.90658,0 3.45227,1.545693 3.45227,3.452261 v 9.20604 c 0,1.906566 -1.54569,3.452265 -3.45227,3.452265 -1.90656,0 -3.45226,-1.545699 -3.45226,-3.452265 v -9.20604 c 0,-1.906568 1.5457,-3.452261 3.45226,-3.452261 z"
         fill="#1c274c"
         id="path1"
         style="fill:#222222;fill-opacity:1;stroke-width:4.60316;stroke-dasharray:none" /><path
         d="m 76.801838,89.334713 v 54.202427 m 0,0 16.677644,-18.24117 M 76.801838,143.53714 60.124192,125.29597"
         stroke="#1c274c"
         stroke-width="7.59627"
         stroke-linecap="round"
         stroke-linejoin="round"
         id="path2"
         style="fill:none;stroke:#222222;stroke-width:6.91255;stroke-dasharray:none;stroke-opacity:1" /></g></g></svg>
